REM DIRINDEX 1\4,1\2\5,1\2\6,1\2\7,1\3\8,1\3\9,1\3\10,1\3\11
REM DIRNAME folder01,folder02,folder03,folder04,folder05,folder06,folder07,folder08,folder09,folder10,folder11
TITLE ""
FILE "t_k_345-355.mp3" MP3
  TRACK 01 AUDIO
    TITLE "5:cjc108_1037"
    INDEX 01 00:00:00
  TRACK 02 AUDIO
    TITLE "0:"
    INDEX 01 00:01:26
  TRACK 03 AUDIO
    TITLE "6:cjc108_1038"
    INDEX 01 00:01:46
  TRACK 04 AUDIO
    TITLE "0:"
    INDEX 01 00:02:55
  TRACK 05 AUDIO
    TITLE "7:cjc108_1039"
    INDEX 01 00:03:04
  TRACK 06 AUDIO
    TITLE "0:"
    INDEX 01 00:07:54
  TRACK 07 AUDIO
    TITLE "5:cjc108_1040"
    INDEX 01 00:08:46
  TRACK 08 AUDIO
    TITLE "0:"
    INDEX 01 00:09:63
  TRACK 09 AUDIO
    TITLE "6:cjc108_1041"
    INDEX 01 00:10:10
  TRACK 10 AUDIO
    TITLE "0:"
    INDEX 01 00:11:72
  TRACK 11 AUDIO
    TITLE "7:cjc108_1042"
    INDEX 01 00:12:22
  TRACK 12 AUDIO
    TITLE "0:"
    INDEX 01 00:20:18
  TRACK 13 AUDIO
    TITLE "5:cjc108_1043"
    INDEX 01 00:21:19
  TRACK 14 AUDIO
    TITLE "0:"
    INDEX 01 00:22:38
  TRACK 15 AUDIO
    TITLE "6:cjc108_1044"
    INDEX 01 00:22:56
  TRACK 16 AUDIO
    TITLE "0:"
    INDEX 01 00:25:11
  TRACK 17 AUDIO
    TITLE "7:cjc108_1045"
    INDEX 01 00:25:31
  TRACK 18 AUDIO
    TITLE "0:"
    INDEX 01 00:31:10
  TRACK 19 AUDIO
    TITLE "5:cjc108_1046"
    INDEX 01 00:32:00
  TRACK 20 AUDIO
    TITLE "0:"
    INDEX 01 00:33:11
  TRACK 21 AUDIO
    TITLE "6:cjc108_1047"
    INDEX 01 00:33:28
  TRACK 22 AUDIO
    TITLE "0:"
    INDEX 01 00:35:74
  TRACK 23 AUDIO
    TITLE "7:cjc108_1048"
    INDEX 01 00:36:19
  TRACK 24 AUDIO
    TITLE "0:"
    INDEX 01 00:41:42
  TRACK 25 AUDIO
    TITLE "5:cjc108_1049"
    INDEX 01 00:42:29
  TRACK 26 AUDIO
    TITLE "0:"
    INDEX 01 00:43:27
  TRACK 27 AUDIO
    TITLE "6:cjc108_1050"
    INDEX 01 00:43:56
  TRACK 28 AUDIO
    TITLE "0:"
    INDEX 01 00:46:68
  TRACK 29 AUDIO
    TITLE "7:cjc108_1051"
    INDEX 01 00:47:11
  TRACK 30 AUDIO
    TITLE "0:"
    INDEX 01 00:51:32
  TRACK 31 AUDIO
    TITLE "5:cjc108_1052"
    INDEX 01 00:52:24
  TRACK 32 AUDIO
    TITLE "0:"
    INDEX 01 00:53:29
  TRACK 33 AUDIO
    TITLE "6:cjc108_1053"
    INDEX 01 00:53:49
  TRACK 34 AUDIO
    TITLE "0:"
    INDEX 01 00:54:54
  TRACK 35 AUDIO
    TITLE "7:cjc108_1054"
    INDEX 01 00:54:74
  TRACK 36 AUDIO
    TITLE "0:"
    INDEX 01 01:02:69
  TRACK 37 AUDIO
    TITLE "5:cjc108_1055"
    INDEX 01 01:03:49
  TRACK 38 AUDIO
    TITLE "0:"
    INDEX 01 01:04:60
  TRACK 39 AUDIO
    TITLE "6:cjc108_1056"
    INDEX 01 01:05:05
  TRACK 40 AUDIO
    TITLE "0:"
    INDEX 01 01:06:22
  TRACK 41 AUDIO
    TITLE "7:cjc108_1057"
    INDEX 01 01:06:40
  TRACK 42 AUDIO
    TITLE "0:"
    INDEX 01 01:11:37
  TRACK 43 AUDIO
    TITLE "5:cjc108_1058"
    INDEX 01 01:12:23
  TRACK 44 AUDIO
    TITLE "0:"
    INDEX 01 01:13:38
  TRACK 45 AUDIO
    TITLE "6:cjc108_1059"
    INDEX 01 01:13:71
  TRACK 46 AUDIO
    TITLE "0:"
    INDEX 01 01:15:21
  TRACK 47 AUDIO
    TITLE "7:cjc108_1060"
    INDEX 01 01:15:39
  TRACK 48 AUDIO
    TITLE "0:"
    INDEX 01 01:21:31
  TRACK 49 AUDIO
    TITLE "5:cjc108_1061"
    INDEX 01 01:22:17
  TRACK 50 AUDIO
    TITLE "0:"
    INDEX 01 01:23:38
  TRACK 51 AUDIO
    TITLE "6:cjc108_1062"
    INDEX 01 01:23:58
  TRACK 52 AUDIO
    TITLE "0:"
    INDEX 01 01:24:67
  TRACK 53 AUDIO
    TITLE "7:cjc108_1063"
    INDEX 01 01:25:13
  TRACK 54 AUDIO
    TITLE "0:"
    INDEX 01 01:29:48
  TRACK 55 AUDIO
    TITLE "5:cjc108_1064"
    INDEX 01 01:30:34
  TRACK 56 AUDIO
    TITLE "0:"
    INDEX 01 01:31:57
  TRACK 57 AUDIO
    TITLE "6:cjc108_1065"
    INDEX 01 01:31:73
  TRACK 58 AUDIO
    TITLE "0:"
    INDEX 01 01:32:72
  TRACK 59 AUDIO
    TITLE "7:cjc108_1066"
    INDEX 01 01:33:25
  TRACK 60 AUDIO
    TITLE "0:"
    INDEX 01 01:40:56
  TRACK 61 AUDIO
    TITLE "5:cjc108_1067"
    INDEX 01 01:41:38
  TRACK 62 AUDIO
    TITLE "0:"
    INDEX 01 01:42:67
  TRACK 63 AUDIO
    TITLE "6:cjc108_1068"
    INDEX 01 01:43:11
  TRACK 64 AUDIO
    TITLE "0:"
    INDEX 01 01:45:34
  TRACK 65 AUDIO
    TITLE "7:cjc108_1069"
    INDEX 01 01:45:59
  TRACK 66 AUDIO
    TITLE "0:"
    INDEX 01 01:50:07
